<?xml version="1.0" encoding="UTF-8"?><svg id="_Вектор" xmlns="http://www.w3.org/2000/svg" xmlns:xlink="http://www.w3.org/1999/xlink" viewBox="0 0 1000.01 999.05"><defs><style>.cls-1{fill:url(#linear-gradient);}.cls-1,.cls-2,.cls-3,.cls-4,.cls-5,.cls-6,.cls-7,.cls-8,.cls-9,.cls-10,.cls-11,.cls-12{stroke-width:0px;}.cls-2{fill:#000;}.cls-13{font-size:175px;}.cls-13,.cls-5,.cls-14{fill:#ff2b29;}.cls-3{fill:url(#linear-gradient-6);}.cls-4,.cls-15{fill:#16adfb;}.cls-16{font-family:MonotypeCorsiva, 'Monotype Corsiva';}.cls-14,.cls-15{font-size:125px;}.cls-6{fill:url(#linear-gradient-5);}.cls-7{fill:#000035;}.cls-8{fill:url(#linear-gradient-2);}.cls-9{fill:url(#linear-gradient-3);}.cls-10{fill:url(#radial-gradient);}.cls-11{fill:#fff;}.cls-12{fill:url(#linear-gradient-4);}</style><linearGradient id="linear-gradient" x1="500.75" y1="704.52" x2="500.75" y2="221.52" gradientUnits="userSpaceOnUse"><stop offset="0" stop-color="#000"/><stop offset=".25" stop-color="#ff2b29"/><stop offset=".75" stop-color="#fd2a28"/><stop offset=".93" stop-color="#f62927"/><stop offset="1" stop-color="#f12927"/></linearGradient><linearGradient id="linear-gradient-2" x1="511.75" y1="688.52" x2="511.75" y2="322.02" gradientUnits="userSpaceOnUse"><stop offset=".42" stop-color="#ff2b29"/><stop offset=".68" stop-color="#000"/><stop offset=".7" stop-color="#190404"/><stop offset=".76" stop-color="#5e0f0f"/><stop offset=".82" stop-color="#971918"/><stop offset=".88" stop-color="#c4211f"/><stop offset=".93" stop-color="#e42624"/><stop offset=".97" stop-color="#f72927"/><stop offset=".99" stop-color="#ff2b29"/></linearGradient><radialGradient id="radial-gradient" cx="500.01" cy="664.68" fx="500.01" fy="664.68" r="277.61" gradientUnits="userSpaceOnUse"><stop offset=".03" stop-color="#000"/><stop offset=".66" stop-color="#ff2b29"/></radialGradient><linearGradient id="linear-gradient-3" x1="515" y1="680.39" x2="515" y2="216.45" gradientUnits="userSpaceOnUse"><stop offset="0" stop-color="#000"/><stop offset=".07" stop-color="#00000f"/><stop offset=".17" stop-color="#000020"/><stop offset=".31" stop-color="#00002c"/><stop offset=".49" stop-color="#003"/><stop offset="1" stop-color="#000035"/></linearGradient><linearGradient id="linear-gradient-4" x1="704.37" y1="248.59" x2="620.83" y2="478.12" gradientUnits="userSpaceOnUse"><stop offset=".58" stop-color="#16adfb"/><stop offset="1" stop-color="#010940"/></linearGradient><linearGradient id="linear-gradient-5" x1="269.11" y1="272.18" x2="431.1" y2="434.17" gradientUnits="userSpaceOnUse"><stop offset=".38" stop-color="#16adfb"/><stop offset=".72" stop-color="#000035"/></linearGradient><linearGradient id="linear-gradient-6" x1="538.16" y1="501.47" x2="613.9" y2="501.47" gradientUnits="userSpaceOnUse"><stop offset=".22" stop-color="#16adfb"/><stop offset=".29" stop-color="#14a3ef"/><stop offset=".41" stop-color="#1188d1"/><stop offset=".57" stop-color="#0b5ea0"/><stop offset=".76" stop-color="#04235d"/><stop offset=".86" stop-color="#000237"/></linearGradient></defs><g id="Delt"><g id="Layer_18_copy"><polygon class="cls-1" points="514.72 221.52 118.75 704.52 217.6 667.52 517.14 288.93 797.75 667.52 882.75 704.52 514.72 221.52"/><polygon class="cls-8" points="518.22 322.02 231.75 681.52 307.75 659.52 520.64 389.43 726.75 667.52 791.75 688.52 518.22 322.02"/></g><g id="Layer_18_copy_3"><polygon class="cls-5" points="514.72 221.52 118.75 704.52 217.6 667.52 517.14 288.93 797.75 667.52 882.75 704.52 514.72 221.52"/><polygon class="cls-5" points="518.22 322.02 231.75 681.52 307.75 659.52 520.64 389.43 726.75 667.52 791.75 688.52 518.22 322.02"/></g><g id="Layer_19_copy"><path class="cls-10" d="M113.75,708.52c-46.2,44.28,541-208,739-33,195,172.35-450-244-739,33Z"/></g><g id="Layer_19_copy_2"><path class="cls-5" d="M113.75,708.52c-46.2,44.28,541-208,739-33,195,172.35-450-244-739,33Z"/></g></g><g id="_Соловей-задник"><g id="_КрыльяБелыйФон"><path class="cls-11" d="M483.89,704.83s24,38,51,2,223.82-341.52,223.82-341.52l32.54-61.34,22.57-19.13-27.93,14,30-84-45,49-253.06,182.02-251.28-164.56c-7.9-5.18-14.86-11.67-20.56-19.2l-31.24-41.25.96,7.43,25.32,69.57-26.28-6.65,20.35,17.63,32.15,56.79,216.65,339.23Z"/></g><g id="_Перья_Темной_Синие"><path class="cls-9" d="M813.7,220.62c.35-1.55,1.33-4.97.75-4-28.75,48-50.75,73-50.75,73l-252.49,180.78-91.51-84.78-153.72-96.79c-5.59-3.52-10.6-7.86-14.88-12.88-10.95-12.87-32.01-38.29-35.4-47.33-3-8,15,61,25,69,0,0,35.34,23.25,44,33,8,9,93,65,93,65l-76-41-66.93-46.02,30.93,57.02,109,39c-10,5-29,0-29,0l-57-20c9.41,10.49,16.49,24.72,26,30,16.78,9.31,97,28,97,28l-3.99.57c-1.99.28-4.02.28-6.01-.02l-42.04-6.26c-1.31-.2-2.61-.46-3.89-.78-6.86-1.74-29.64-7.58-31.06-8.51-1.14-.75,21,26,21,26l79,11s3,5-24,4-43,1-46-2,15,21,15,21c0,0,62.51-4.16,58-2-23.99,11.52-54,10-54,10,4.43,5.93,13,17,13,17,6.13-10.66,49-3,49-3,0,0-6.9.96-15,7-4.74,3.53-29,4-29,4l13,18,97,130,7,10s3,4,6,0,118-155,118-155c0,0-30-6-27-14s28,4,31,5,14-17,14-17l-46-10h0c3.91-2.61,8.51-4,13.21-4h6.91c4.54.22,7.42.45,11.02,1.34l18.76,4.13,18.79-23.12-16.93,2.1c-5.16,1.03-10.42,1.47-15.69,1.29l-22.08-.74-20-2s4-8,12-8h34.87c3.48,0,6.95-.22,10.39-.67,7.44-.97,20.29-2.7,21.74-3.33,5.7-2.47,22-26,22-26,0,0-28,12-56,12h-26.39c-3.16,0-6.29.63-9.19,1.88-4.24,1.82-9.6,6.14-13.42,7.12-9.65,2.47,3-5,3-5,0,0,18-12,24-12s27-2,27-2c0,0,62.18-10.88,62-15-.44-10.21,26-31,26-31,0,0-104,39-104,32s20-14,20-14l33-9,74-28,32-62-44,33-84,52,37-34,61-40s19.72-12.57,25.61-20.71c1.21-1.67,5.12-7.35,9.39-20.29"/></g><g id="Layer_12"><path class="cls-12" d="M575.23,461.52l59.62-47s145.63-125,140.75-140c-157.36,107-222.85,167-222.85,167"/></g><g id="_ВерхнееПероЛевое"><path class="cls-6" d="M258.22,283.08c10.89,12.49,19.1,39.78,40.62,57.78,19.66,16.44,36.53,27.41,53.06,38.47,14.46,9.67,25.85,16.19,25.85,16.19l71,21-23.96-28.06-166.57-105.38Z"/></g></g><g id="_Соловей-перед"><g id="_Тельцо"><path class="cls-11" d="M587.63,577.72l-29.6,21.76s-6.23,4.12-19,1c-11.84-2.89-30.13-12.9-34-16-40.29-32.28-74.3-67.13-60-141,.09-.45-18.4-13.87-26.92-18.33-4.61-2.41-9.74-3.67-14.95-3.67l-29.13-1s55-32,66-44,31-16,31-16c0,0,23-1,28,1s11,2,23,12,33,38,35,53l-19.73,44.52,1.51,3.97,2.2,7.23c5.06,15.29,11.95,29.93,20.5,43.58l27.62,44.07c1.64,2.61.98,6.04-1.5,7.86Z"/></g><g id="_Радушка"><ellipse class="cls-7" cx="477.27" cy="405.5" rx="13.99" ry="15.5" transform="translate(51.73 864.99) rotate(-87.55)"/></g><g id="_Зрачок"><ellipse class="cls-11" cx="480.25" cy="403.04" rx="6.5" ry="6"/></g><g id="Layer_7"><path class="cls-2" d="M444.37,413.52l-2.01,4h-33.99s18-3.72,36-4"/></g><g id="_Грива"><path class="cls-4" d="M609.68,518.53c-.96.82-2.98-.25-11-5-16.61-9.83-24.91-14.74-31-19-17.8-12.45-16,8.5-29.52-19.99-5.24-11.04-24.46-48.69-33.48-61.01-2.2-3.01-8.15-8.62-11-11-3.17-2.65-3.11-4.61-5.65-7.02-4.15-3.93-10.08-3.13-11.35-2.98-6.19.73-12.7,4.92-14,10-.41,1.59-1,5.99-1,6,0,0-.01,0-.04,0-.03,0-.53.09-.54.1-8.61,1.51-21.85.38-21.85.38-15.14-1.29-20.56,2.55-21.56.52-2.89-5.88,37.95-47.02,76.56-37.52,13.53,3.33,23.81,11.98,25,13,9.82,8.43,29.76,42.79,33.5,46.5s5.48,4.13,7,5c14.66,8.34,53.15,79.27,49.94,82.02Z"/></g><g id="Layer_20"><path class="cls-3" d="M538.17,473.95c-.38-3.85,22.04,11.84,39.5,23.15,18.32,11.86,35.01,28.08,35.01,28.08,2.58,1.54.69,5.04-2.32,4.3l-42.2-10.44c-6.82-1.69-13.77-5.39-16.84-10.95-3.83-6.94-9.54-22.49-11.77-30.33-.43-1.52-1.3-3-1.38-3.8Z"/></g></g><text class="cls-16" transform="translate(286 827.2)"><tspan class="cls-15" x="0" y="0">SoloV</tspan><tspan class="cls-13" x="267.46" y="0">Δ</tspan><tspan class="cls-14" x="346.58" y="0">el</tspan></text></svg>